<?xml version="1.0" standalone="no"?>
<!DOCTYPE svg PUBLIC "-//W3C//DTD SVG 20010904//EN"
 "http://www.w3.org/TR/2001/REC-SVG-20010904/DTD/svg10.dtd">
<svg version="1.0" xmlns="http://www.w3.org/2000/svg"
 width="512.000000pt" height="512.000000pt" viewBox="0 0 512.000000 512.000000"
 preserveAspectRatio="xMidYMid meet">
<metadata>
Created by potrace 1.11, written by Peter Selinger 2001-2013
</metadata>
<g transform="translate(0.000000,512.000000) scale(0.100000,-0.100000)"
fill="#000000" stroke="none">
<path d="M2331 4304 c-417 -89 -703 -440 -695 -854 0 -36 4 -164 8 -285 4
-121 9 -269 11 -330 2 -60 6 -191 10 -290 9 -257 13 -383 20 -610 11 -357 15
-410 47 -520 81 -280 307 -501 599 -585 95 -28 312 -35 409 -15 294 63 538
276 636 555 43 124 49 179 59 505 3 105 8 237 10 295 2 58 7 184 10 280 4 96
8 211 10 255 10 228 19 541 20 705 0 214 -15 293 -84 431 -121 241 -327 401
-600 463 -83 19 -380 19 -470 0z"/>
</g>
</svg>
